<svg enable-background="new 0 0 512 512" viewBox="0 0 512 512" xmlns="http://www.w3.org/2000/svg" fill="#cccccc"  opacity=".8"><path d="m391.33 443.179c0 7.376-5.978 13.354-13.353 13.354h-243.953c-7.375 0-13.355-5.979-13.355-13.354v-421.987c0-7.376 5.981-13.355 13.355-13.355h243.953c7.376 0 13.353 5.98 13.353 13.355z" fill="#074445" opacity=".1"/><path d="m153.567 443.179v-421.987c0-7.376 5.981-13.355 13.355-13.355h-32.898c-7.375 0-13.355 5.98-13.355 13.355v421.986c0 7.376 5.981 13.354 13.355 13.354h32.898c-7.375.001-13.355-5.978-13.355-13.353z" opacity=".2"/><path d="m204.115 192.285c-4.13 0-7.989-2.056-10.293-5.485-12.136-18.073-18.821-41.073-18.821-64.763 0-23.692 6.684-46.692 18.821-64.762 2.304-3.429 6.163-5.488 10.293-5.488h103.77c4.132 0 7.989 2.058 10.294 5.488 12.135 18.07 18.82 41.071 18.82 64.762s-6.684 46.691-18.82 64.763c-2.304 3.428-6.162 5.485-10.294 5.485z" fill="#127475"/><path d="m215.261 186.801c-12.136-18.072-18.821-41.072-18.821-64.763 0-23.692 6.684-46.692 18.821-64.762 2.304-3.429 6.163-5.488 10.293-5.488h-21.439c-4.13 0-7.989 2.058-10.293 5.488-12.137 18.07-18.821 41.071-18.821 64.762s6.684 46.691 18.821 64.763c2.304 3.428 6.163 5.485 10.293 5.485h21.439c-4.13-.001-7.989-2.056-10.293-5.485z" opacity=".1"/><path d="m268.707 167.086v-14.684c0-4.68-3.793-8.472-8.472-8.472h-8.47c-4.679 0-8.472 3.793-8.472 8.472v14.684z" fill="#828178"/><path d="m274.561 416.838c0 5.255-4.262 9.516-9.518 9.516h-18.086c-5.257 0-9.517-4.261-9.517-9.516v-43.782c0-5.255 4.261-9.516 9.517-9.516h18.086c5.256 0 9.518 4.261 9.518 9.516z" fill="#127475"/><path d="m230.09 300.203c0 6.283-5.093 11.376-11.376 11.376-6.283 0-11.375-5.093-11.375-11.376v-56.872c0-6.282 5.092-11.376 11.375-11.376 6.283 0 11.376 5.094 11.376 11.376z" fill="#828178"/><path d="m304.66 300.203c0 6.283-5.092 11.376-11.376 11.376-6.282 0-11.376-5.093-11.376-11.376v-56.872c0-6.282 5.094-11.376 11.376-11.376 6.284 0 11.376 5.094 11.376 11.376z" fill="#828178"/><path d="m189.99 307.784v37.056c0 30.489 24.716 55.204 55.207 55.204h21.603c30.492 0 55.208-24.715 55.208-55.204v-37.056z" fill="#127475"/><path d="m211.732 344.839v-37.056h-21.742v37.056c0 30.489 24.716 55.204 55.207 55.204h21.603c.023 0 .046-.002.069-.002-30.457-.037-55.137-24.736-55.137-55.202z" opacity=".1"/><path d="m335.212 305.693c0 8.616-6.985 15.6-15.6 15.6h-127.223c-8.616 0-15.601-6.984-15.601-15.6 0-8.617 6.985-15.601 15.601-15.601h127.223c8.615 0 15.6 6.983 15.6 15.601z" fill="#0e9594"/><path d="m198.53 305.693c0-8.617 6.985-15.601 15.601-15.601h-21.742c-8.616 0-15.601 6.983-15.601 15.601 0 8.616 6.985 15.6 15.601 15.6h21.742c-8.616 0-15.601-6.984-15.601-15.6z" opacity=".1"/><path d="m229.949 119.282v-30.854c0-4.329-3.509-7.837-7.837-7.837s-7.837 3.508-7.837 7.837v30.855c0 4.329 3.509 7.837 7.837 7.837 4.328-.001 7.837-3.509 7.837-7.838z"/><path d="m297.726 119.282v-30.854c0-4.329-3.508-7.837-7.837-7.837s-7.837 3.508-7.837 7.837v30.855c0 4.329 3.508 7.837 7.837 7.837s7.837-3.509 7.837-7.838z" /><path d="m268.707 174.923c4.329 0 7.837-3.508 7.837-7.837v-14.684c0-8.993-7.316-16.309-16.309-16.309h-8.47c-8.992 0-16.309 7.316-16.309 16.309v14.684c0 4.329 3.509 7.837 7.837 7.837zm-17.578-22.519c0-.351.285-.635.635-.635h8.47c.351 0 .635.285.635.635v6.847h-9.742v-6.847z"/><path d="m391.33 64.261c4.329 0 7.837-3.508 7.837-7.837v-35.232c0-11.684-9.506-21.192-21.19-21.192h-243.953c-11.685 0-21.192 9.508-21.192 21.192v421.986c0 11.685 9.506 21.191 21.192 21.191h114.138v39.795c0 4.329 3.509 7.837 7.837 7.837 4.329 0 7.837-3.508 7.837-7.837v-39.794h114.14c11.684 0 21.189-9.506 21.189-21.191v-349.138c0-4.329-3.508-7.837-7.837-7.837s-7.837 3.508-7.837 7.837v349.138c0 3.042-2.474 5.517-5.516 5.517h-114.14v-14.505h1.206c9.569 0 17.355-7.785 17.355-17.353v-10.912c27.244-6.959 47.449-31.705 47.449-61.086v-18.067c7.809-3.807 13.202-11.823 13.202-21.08 0-12.923-10.514-23.438-23.437-23.438h-7.115v-38.924c0-10.594-8.618-19.213-19.213-19.213-10.594 0-19.213 8.618-19.213 19.213v38.924h-36.146v-38.924c0-10.594-8.619-19.213-19.213-19.213-10.593 0-19.212 8.618-19.212 19.213v38.924h-7.114c-12.923 0-23.438 10.515-23.438 23.438 0 9.255 5.394 17.273 13.202 21.08v18.067c0 29.38 20.205 54.128 47.449 61.086v10.912c0 9.568 7.786 17.353 17.354 17.353h1.206v14.505h-114.133c-3.043 0-5.518-2.475-5.518-5.517v-421.987c0-3.043 2.475-5.518 5.518-5.518h243.953c3.042 0 5.516 2.475 5.516 5.518v35.233c.001 4.329 3.508 7.836 7.837 7.836zm-101.583 179.071c0-1.951 1.588-3.539 3.539-3.539s3.539 1.588 3.539 3.539v38.924h-7.077v-38.924zm-74.571 0c0-1.951 1.587-3.539 3.538-3.539 1.952 0 3.539 1.588 3.539 3.539v38.924h-7.077zm-17.349 101.507v-15.71h70.711c4.329 0 7.837-3.508 7.837-7.837s-3.508-7.837-7.837-7.837h-76.149c-4.281 0-7.765-3.483-7.765-7.764 0-4.282 3.483-7.765 7.765-7.765h127.223c4.281 0 7.764 3.483 7.764 7.765 0 4.281-3.483 7.764-7.764 7.764h-18.682c-4.329 0-7.837 3.508-7.837 7.837s3.508 7.837 7.837 7.837h13.243v15.71c0 26.118-21.251 47.367-47.371 47.367h-21.603c-26.121.001-47.372-21.247-47.372-47.367zm49.13 73.678c-.927 0-1.68-.753-1.68-1.679v-8.957h21.448v8.957c0 .927-.754 1.679-1.681 1.679z"/><path d="m200.328 182.432c-2.385-3.552-4.58-7.375-6.52-11.36-1.895-3.892-6.588-5.511-10.477-3.615-3.891 1.895-5.51 6.586-3.614 10.476 2.257 4.634 4.814 9.087 7.602 13.239 3.766 5.605 10.046 8.951 16.798 8.951h103.77c6.752 0 13.032-3.346 16.8-8.953 12.994-19.35 20.15-43.902 20.15-69.131 0-25.231-7.157-49.783-20.151-69.133-3.767-5.607-10.047-8.954-16.799-8.954h-103.77c-6.752 0-13.032 3.348-16.799 8.955-12.995 19.35-20.152 43.901-20.152 69.131 0 8.672.846 17.343 2.514 25.772.841 4.246 4.968 7.002 9.21 6.166 4.245-.84 7.006-4.963 6.166-9.209-1.47-7.429-2.216-15.077-2.216-22.73 0-22.152 6.211-43.6 17.49-60.393.85-1.265 2.265-2.021 3.787-2.021h103.77c1.522 0 2.939.757 3.788 2.021 11.278 16.793 17.488 38.241 17.488 60.393 0 22.151-6.211 43.6-17.486 60.392-.851 1.264-2.266 2.02-3.79 2.02h-103.77c-1.524 0-2.94-.754-3.789-2.017z"/></svg>
