<svg fill="none" height="20" viewBox="0 0 20 20" width="20" xmlns="http://www.w3.org/2000/svg"><path d="m10.052 2.29429c.3393-.9773 1.6321-1.427569 2.4309-.59044.1626.17042.3252.35458.4347.5188.3203.48051.4549 1.1133.5042 1.72967.0503.62813.0162 1.30225-.048 1.91252-.0645.61262-.1609 1.17475-.241 1.58293-.0034.0177-.0069.03511-.0103.05223h.8835c1.8717 0 3.2864 1.69514 2.9516 3.5367l-.6839 3.7617c-.472 2.5959-3.0659 4.2307-5.6115 3.5364l-5.59969-1.5272c-.91357-.2491-1.60796-.9931-1.79366-1.9216l-.35304-1.7652c-.27772-1.3886.7841-2.5584 1.91324-3.0047.32258-.12749.61432-.28931.84069-.49013 1.70609-1.51352 2.32468-2.7231 3.38432-4.84902.35434-.7109.71799-1.67641.99794-2.48266zm1.9645 5.58433.0004-.00155.0018-.00734.0075-.0311c.0066-.02784.0164-.0696.0287-.12369.0244-.10825.0586-.26564.0966-.45958.0762-.3887.1673-.92032.2278-1.4952.0608-.57723.0892-1.18436.0457-1.7281-.0444-.55551-.1598-.98522-.3395-1.25471-.0591-.08865-.1717-.22131-.3261-.38314-.1989-.20845-.628-.15993-.7627.22807-.2826.81381-.6633 1.82966-1.04766 2.60077-1.06688 2.14044-1.75578 3.50103-3.61568 5.15095-.34032.3019-.74458.5171-1.13671.6721-.88034.348-1.4463 1.1484-1.30026 1.8786l.35304 1.7652c.11142.5571.52805 1.0035 1.07619 1.1529l5.59978 1.5273c1.9798.5399 3.9973-.7316 4.3644-2.7506l.684-3.7617c.2232-1.22771-.72-2.3578-1.9678-2.3578h-1.5045c-.1539 0-.2993-.07094-.3941-.19229-.0947-.12133-.1282-.27975-.0909-.42909 0-.00004 0 .00004 0 0z" fill="#212121"/></svg>
